# xmcd
#
# Track frame offsets: 
#        150
#        9883
#        19245
#        34459
#        48089
#        65588
#        81803
#        91880
#        108999
#        125479
#        135323
#        146395
#        159668
#
# Disc length: 2451 seconds
#
# Revision: 0
# Processed by: cddbd v1.5.2PL0 Copyright (c) Steve Scherf et al.
# Submitted via: ExactAudioCopy v0.90b4
#
DISCID=a009910d
DTITLE=The Curst Sons - Hey Moon
DYEAR=2007
DGENRE=Bluegrass
TTITLE0=Careless Gardner
TTITLE1=Little Black Train
TTITLE2=Hope Need Want
TTITLE3=Hey Moon
TTITLE4=Mama's in the kitchen
TTITLE5=I got it bad
TTITLE6=Rock covers band
TTITLE7=The secrets of the boudoir
TTITLE8=Help the poor struggler
TTITLE9=Ain't dead yet
TTITLE10=Lazarus
TTITLE11=Tell it to me
TTITLE12=Yellow Ribbon
EXTD=
EXTT0=
EXTT1=
EXTT2=
EXTT3=
EXTT4=
EXTT5=
EXTT6=
EXTT7=
EXTT8=
EXTT9=
EXTT10=
EXTT11=
EXTT12=
PLAYORDER=
